<svg width="468" height="452" viewBox="0 0 468 452" fill="none" xmlns="http://www.w3.org/2000/svg">
<path d="M302.697 169.647C302.697 131.767 271.879 100.95 234 100.95C196.121 100.95 165.303 131.768 165.303 169.647C165.303 207.526 196.12 238.344 234 238.344C271.88 238.344 302.697 207.526 302.697 169.647Z" fill="#fff"/>
<path d="M234 0.0499878C104.765 0.0499878 0 104.815 0 234.05C0 304.808 31.408 368.23 81.041 411.138V391.302C81.041 328.281 119.354 274.046 173.909 250.649C149.163 232.244 133.1 202.786 133.1 169.646C133.1 114.01 178.363 68.747 233.999 68.747C289.635 68.747 334.898 114.01 334.898 169.646C334.898 202.786 318.836 232.244 294.089 250.649C348.644 274.045 386.957 328.281 386.957 391.302V411.138C436.592 368.23 468 304.809 468 234.05C468 104.816 363.235 0.0499878 234 0.0499878Z" fill="#fff"/>
<path d="M234 270.546C167.414 270.546 113.243 324.717 113.243 391.303V415.443C149.046 439.353 190.622 451.949 234 451.949C277.378 451.949 318.954 439.352 354.757 415.443V391.303C354.757 324.717 300.586 270.546 234 270.546Z" fill="#fff"/>
</svg>
