<svg width="46" height="46" viewBox="0 0 46 46" fill="none" xmlns="http://www.w3.org/2000/svg">
<path d="M23 46C18.451 46 14.0042 44.6511 10.2219 42.1238C6.43956 39.5965 3.4916 36.0044 1.75078 31.8017C0.00996566 27.599 -0.445511 22.9745 0.441949 18.5129C1.32941 14.0514 3.51995 9.95316 6.73655 6.73655C9.95316 3.51995 14.0514 1.32941 18.5129 0.441949C22.9745 -0.445511 27.599 0.00996566 31.8017 1.75078C36.0044 3.4916 39.5965 6.43956 42.1238 10.2219C44.6511 14.0042 46 18.451 46 23C46 29.1 43.5768 34.9501 39.2635 39.2635C34.9501 43.5768 29.1 46 23 46ZM23 2.00001C18.8466 2.00001 14.7865 3.23164 11.333 5.53915C7.8796 7.84666 5.18798 11.1264 3.59854 14.9637C2.0091 18.8009 1.59323 23.0233 2.40352 27.0969C3.21381 31.1705 5.21387 34.9124 8.15077 37.8493C11.0877 40.7862 14.8295 42.7862 18.9031 43.5965C22.9767 44.4068 27.1991 43.9909 31.0364 42.4015C34.8736 40.812 38.1534 38.1204 40.4609 34.667C42.7684 31.2136 44 27.1534 44 23C44 17.4305 41.7875 12.089 37.8493 8.15077C33.911 4.2125 28.5696 2.00001 23 2.00001Z" fill="white"/>
<path d="M10 23L20.17 33.17L36 17.35L31.48 12.83L20.17 24.13L14.52 18.48L10 23Z" fill="white"/>
</svg>
