<svg width="233" height="130" viewBox="0 0 233 130" fill="none" xmlns="http://www.w3.org/2000/svg">
<path d="M220.029 130H229.812C231.052 130 232.061 128.991 232.061 127.751V2.24805C232.061 1.00879 231.052 0 229.812 0H220.029C218.789 0 217.78 1.00879 217.78 2.24805V16H135.28V2.24805C135.28 1.00879 134.271 0 133.031 0H123.249C122.009 0 121 1.00879 121 2.24805V127.751C121 128.991 122.009 130 123.249 130H133.031C134.271 130 135.28 128.991 135.28 127.751V114H210.697H217.78V127.751C217.78 128.991 218.789 130 220.029 130ZM219.78 113V92.5811V49V28.5811V2.24805C219.78 2.11133 219.892 2 220.029 2H229.812C229.949 2 230.061 2.11133 230.061 2.24805V127.751C230.061 127.889 229.949 128 229.812 128H220.029C219.892 128 219.78 127.889 219.78 127.751V113ZM133.28 60.5811V81V127.751C133.28 127.889 133.169 128 133.031 128H123.249C123.111 128 123 127.889 123 127.751V2.24805C123 2.11133 123.111 2 123.249 2H133.031C133.169 2 133.28 2.11133 133.28 2.24805V60.5811ZM217.78 48H211.697V33.4141V29.5811H217.78V48ZM135.28 18H217.78V27.5811H210.697C210.145 27.5811 209.697 28.0283 209.697 28.5811V32.4141H202.613C202.061 32.4141 201.613 32.8613 201.613 33.4141V48H165.811V42.2471C165.811 41.6943 165.363 41.2471 164.811 41.2471H146.56C146.007 41.2471 145.56 41.6943 145.56 42.2471V48H135.28V18ZM209.697 34.4141V48H203.613V34.4141H209.697ZM163.811 43.2471V48H147.56V43.2471H163.811ZM135.28 50H146.56H164.811H202.613H210.697H217.78V80H163.941L166.499 79.0068C166.747 78.9102 166.947 78.7178 167.054 78.4736C167.16 78.2285 167.164 77.9512 167.065 77.7041L158.92 57.2822C158.716 56.7715 158.139 56.5186 157.629 56.7207L150.269 59.5811H142.363H135.28V50ZM151.758 61.1475L157.43 58.9434L164.834 77.5068L159.163 79.709L151.758 61.1475ZM157.126 80H151.447V65.7659L157.126 80ZM149.447 61.5811V80H143.363V61.5811H149.447ZM135.28 61.5811H141.363V80H135.28V61.5811ZM172.937 111.938H156.685V107.187H172.937V111.938ZM197.77 109.903L203.642 91.3867L209.44 93.2275L203.567 111.744L197.77 109.903ZM209.697 112H205.584L209.697 99.0337V112ZM203.294 89.1777C203.042 89.0977 202.767 89.1221 202.531 89.2432C202.296 89.3652 202.118 89.5752 202.038 89.8281L195.561 110.251C195.394 110.777 195.685 111.34 196.211 111.507L197.764 112H174.937V106.187C174.937 105.634 174.489 105.187 173.937 105.187H155.685C155.132 105.187 154.685 105.634 154.685 106.187V112H135.28V82H142.363H150.447H217.78V91.5811H210.864L203.294 89.1777ZM211.697 112V93.5811H217.78V112H211.697Z" fill="white"/>
<path d="M46.125 46.5H42.75V39.0625C42.75 38.4675 42.255 38 41.625 38H5.625C2.52 38 0 40.38 0 43.3125V85.8125C0 88.3838 1.935 90.53 4.5 91.0188C4.86 91.0825 5.2425 91.125 5.625 91.125H6.75H46.125C46.755 91.125 47.25 90.6575 47.25 90.0625V47.5625C47.25 46.9675 46.755 46.5 46.125 46.5ZM5.625 40.125H40.5V42.25H19.125C18.495 42.25 18 42.7175 18 43.3125C18 43.9075 18.495 44.375 19.125 44.375H40.5V46.5H6.75H5.625C5.22 46.5 4.86 46.4362 4.5 46.3088C3.195 45.8837 2.25 44.6937 2.25 43.3125C2.25 41.5487 3.7575 40.125 5.625 40.125ZM2.25 85.8125V47.5412C2.9025 47.9875 3.6675 48.3487 4.5 48.4975V88.8088C3.195 88.3838 2.25 87.1937 2.25 85.8125ZM45 89H6.75V48.625H45V89Z" fill="white"/>
<path d="M13.5 63.5H38.25C38.88 63.5 39.375 63.0325 39.375 62.4375V53.9375C39.375 53.3425 38.88 52.875 38.25 52.875H13.5C12.87 52.875 12.375 53.3425 12.375 53.9375V62.4375C12.375 63.0325 12.87 63.5 13.5 63.5ZM14.625 55H37.125V61.375H14.625V55Z" fill="white"/>
<path d="M12.375 44.375H14.625C15.255 44.375 15.75 43.9075 15.75 43.3125C15.75 42.7175 15.255 42.25 14.625 42.25H12.375C11.745 42.25 11.25 42.7175 11.25 43.3125C11.25 43.9075 11.745 44.375 12.375 44.375Z" fill="white"/>
<path d="M62.4717 69.4357L72.4045 82.1627C73.2343 83.1458 74.5419 83.2255 75.3969 82.4816C76.277 81.7376 76.4028 80.2231 75.6987 79.3197L68.6325 70.2594H103.863C105.044 70.2594 106 69.2497 106 68.0009C106 66.7521 105.044 65.7425 103.863 65.7425H68.6325L75.6987 56.6821C76.4028 55.7521 76.2519 54.2642 75.3969 53.4937C74.5419 52.6966 73.1086 52.9091 72.4045 53.8125L62.4717 66.5661C61.8179 67.5227 61.8682 68.5057 62.4717 69.4357Z" fill="white"/>
</svg>
