<svg width="510" height="512" viewBox="0 0 510 512" fill="none" xmlns="http://www.w3.org/2000/svg">
<g clip-path="url(#clip0_10_2)">
<mask id="mask0_10_2" style="mask-type:luminance" maskUnits="userSpaceOnUse" x="3" y="-1" width="504" height="504">
<path d="M507 -1H3V503H507V-1Z" fill="white"/>
</mask>
<g mask="url(#mask0_10_2)">
<g filter="url(#filter0_d_10_2)">
<path d="M507.01 448.63C505.78 447.91 504.26 447.9 503.02 448.61L452.37 477.41L439.44 455.42L507.03 415.69C508.93 414.57 509.57 412.12 508.45 410.21C507.33 408.31 504.88 407.67 502.97 408.79L489.75 416.56C481.01 415.17 432.97 407.07 408.89 394.42C394.42 386.81 381.05 369.11 368.13 351.99C357.69 338.15 346.89 323.84 335.4 314.87C318.1 301.37 279.5 277.56 258.03 264.57C250.68 260.13 248.21 250.47 252.54 243.05C256.87 235.61 266.2 232.99 273.77 237.1L409.58 310.7C411.53 311.76 413.95 311.04 415 309.09C416.06 307.15 415.34 304.72 413.39 303.67L394 292.5C395 291 394.75 290.61 394 288.5L369.68 223.56C380.33 222.95 406.24 222.92 429.74 234.1C438.82 238.42 479.98 262.34 502.08 285.9C502.87 286.74 503.93 287.16 505 287.16C505.98 287.16 506.96 286.8 507.74 286.08C509.35 284.56 509.43 282.03 507.92 280.42C484.72 255.7 442.93 231.52 433.17 226.88C405.9 213.9 376.53 214.93 366.88 215.71L345.7 156.31C343.33 149.68 338.86 139.52 332.5 136.5C326.13 133.48 317.14 136.63 310.5 139L189.61 183.98V33.15C189.61 14.6 174.52 -0.5 155.96 -0.5H38.65C20.1 -0.5 5 14.6 5 33.15V243.23C5 261.78 20.1 276.88 38.65 276.88H77.53L116.05 384.88C119.89 395.66 130.08 402.4 140.92 402.4C143.85 402.4 146.84 401.91 149.75 400.87L286.52 352.09C292.79 357.65 313.69 374.95 331.37 374.95C331.41 374.95 331.44 374.95 331.47 374.95C334.43 380.81 342.62 394.57 355.03 396.49C358.1 402.82 367.92 420.28 382.59 420.28C382.7 420.28 382.82 420.28 382.93 420.28C396.24 420.04 407.75 409.61 412.3 404.87C433.13 413.81 463.08 419.98 479.04 422.86L431.94 450.55C431.03 451.09 430.36 451.97 430.1 452.99C429.83 454.02 429.98 455.11 430.52 456.03L457.27 501.53C457.99 502.75 459.3 503.5 460.72 503.5H505C507.21 503.5 509 501.71 509 499.5V452.09C509 450.66 508.24 449.34 507.01 448.63ZM138.45 62.8V95.21H56.16V62.8H138.45ZM56.16 227.18V152.64H138.45V202.22L108 213.5C104.28 214.83 113.72 224.48 111 227.18H56.16ZM147.07 393.33C137.53 396.74 126.99 391.74 123.58 382.19L77.18 252.08C75.53 247.46 108.9 234.5 111 230.06C113.11 225.63 116.05 227.18 108 223L315.5 146C320.12 144.35 325.56 139.89 330 142C334.43 144.1 336.51 154.38 338.16 159L384.1 287.79L308.88 247.02L299.42 241.9L277.58 230.06C266.18 223.88 252.14 227.82 245.62 239.03C241.51 246.08 241.48 254.47 244.8 261.38C244.8 261.38 244.8 263.396 249.66 268.14C250.92 269.37 252.33 270.47 253.89 271.42C275.21 284.32 313.5 307.93 330.48 321.18C332.33 322.63 334.16 324.23 335.98 325.95L147.07 393.33ZM295.2 348.99L342.12 332.26C346.52 337.11 350.89 342.58 355.32 348.34C353.35 353.07 347.05 365.16 333.46 366.83C321.59 368.29 304.75 356.85 295.2 348.99ZM357.76 388.72C350.02 388.61 343.4 379.94 339.82 373.63C350.94 370.29 357.41 361.63 360.74 355.48C361.08 355.92 361.41 356.37 361.75 356.81C366.96 363.72 372.25 370.72 377.7 377.19C374.43 381.15 367 388.72 358 388.72C357.92 388.72 357.84 388.72 357.76 388.72ZM382.78 412.28C382.72 412.28 382.66 412.28 382.6 412.28C374.64 412.28 367.63 402.91 363.79 396.03C372.56 393.94 379.33 387.55 383.04 383.28C389.87 390.73 397.01 397.08 404.63 401.21C400.07 405.53 391.69 412.12 382.78 412.28Z" fill="white"/>
<path d="M96.33 400.77C94.2 400.2 92.01 401.47 91.44 403.6L83.14 434.81C82.57 436.95 83.84 439.14 85.98 439.71C86.32 439.8 86.67 439.84 87.01 439.84C88.78 439.84 90.4 438.66 90.87 436.87L99.17 405.66C99.74 403.53 98.47 401.33 96.33 400.77Z" fill="white"/>
<path d="M58.84 384.88L34.6 406.79C32.96 408.27 32.84 410.8 34.32 412.44C35.11 413.31 36.19 413.76 37.29 413.76C38.24 413.76 39.2 413.42 39.97 412.72L64.2 390.81C65.84 389.33 65.97 386.8 64.49 385.16C63.01 383.52 60.48 383.39 58.84 384.88Z" fill="white"/>
<path d="M50.87 346.22C50.43 344.06 48.32 342.66 46.16 343.09L11.34 350.13C9.17 350.57 7.76999 352.68 8.20999 354.84C8.58999 356.74 10.26 358.05 12.13 358.05C12.39 358.05 12.66 358.03 12.92 357.97L47.74 350.93C49.91 350.5 51.31 348.39 50.87 346.22Z" fill="white"/>
</g>
</g>
<path d="M105.653 217.662L110.303 230.439L71.6539 244.506C68.562 245.632 66.8146 248.39 67.6827 250.775L117.285 387.057C121.564 398.811 137.404 403.849 152.643 398.303L349.5 329L337 316L394 288.5L391.803 282.318L337.55 133.259C336.682 130.874 333.571 129.884 330.479 131.01L109.624 211.394C106.532 212.519 104.785 215.277 105.653 217.662ZM128.328 383.038L80.2755 251.014L91.3182 246.995L120.77 327.913C121.638 330.297 124.749 331.287 127.841 330.162C130.933 329.036 132.681 326.278 131.812 323.893L102.361 242.976L113.404 238.957L159.906 366.721L161.456 370.98C162.014 372.513 162.179 373.996 162.012 375.6C161.602 381.345 156.72 387.173 149.542 389.785C140.377 393.121 130.901 390.107 128.328 383.038ZM334 323L171.517 381.787C172.937 378.473 173.76 374.894 173.386 371.461L325 316L334 323ZM328.057 141.537L385.5 292.601L337 316L325 307.398L170.949 362.702L118.246 217.902L328.057 141.537Z" fill="white"/>
<path d="M238.947 309.014L204.845 215.32C203.977 212.935 200.866 211.946 197.774 213.071L153.603 229.148C150.511 230.273 148.764 233.032 149.632 235.416L183.734 329.111C184.602 331.495 187.713 332.485 190.805 331.36L234.976 315.283C238.068 314.157 239.815 311.399 238.947 309.014ZM193.226 320.832L162.225 235.656L195.353 223.598L226.354 308.775L193.226 320.832Z" fill="white"/>
<path d="M141.113 349.446L138.013 340.929C137.145 338.544 134.033 337.554 130.941 338.679C127.849 339.805 126.102 342.563 126.97 344.948L130.07 353.465C130.938 355.85 134.05 356.84 137.142 355.715C140.234 354.589 141.981 351.831 141.113 349.446Z" fill="white"/>
</g>
<defs>
<filter id="filter0_d_10_2" x="1" y="-0.5" width="512.002" height="512" filterUnits="userSpaceOnUse" color-interpolation-filters="sRGB">
<feFlood flood-opacity="0" result="BackgroundImageFix"/>
<feColorMatrix in="SourceAlpha" type="matrix" values="0 0 0 0 0 0 0 0 0 0 0 0 0 0 0 0 0 0 127 0" result="hardAlpha"/>
<feOffset dy="4"/>
<feGaussianBlur stdDeviation="2"/>
<feComposite in2="hardAlpha" operator="out"/>
<feColorMatrix type="matrix" values="0 0 0 0 0 0 0 0 0 0 0 0 0 0 0 0 0 0 0.25 0"/>
<feBlend mode="normal" in2="BackgroundImageFix" result="effect1_dropShadow_10_2"/>
<feBlend mode="normal" in="SourceGraphic" in2="effect1_dropShadow_10_2" result="shape"/>
</filter>
<clipPath id="clip0_10_2">
<rect width="510" height="512" fill="white"/>
</clipPath>
</defs>
</svg>
