<svg width="510" height="512" viewBox="0 0 510 512" fill="none" xmlns="http://www.w3.org/2000/svg">
<g clip-path="url(#clip0_10_2)">
<mask id="mask0_10_2" style="mask-type:luminance" maskUnits="userSpaceOnUse" x="3" y="-1" width="504" height="504">
<path d="M507 -1H3V503H507V-1Z" fill="white"/>
</mask>
<g mask="url(#mask0_10_2)">
<g filter="url(#filter0_d_10_2)">
<path d="M507.01 448.63C505.78 447.91 504.26 447.9 503.02 448.61L452.37 477.41L439.44 455.42L507.03 415.69C508.93 414.57 509.57 412.12 508.45 410.21C507.33 408.31 504.88 407.67 502.97 408.79L489.75 416.56C481.01 415.17 432.97 407.07 408.89 394.42C394.42 386.81 381.05 369.11 368.13 351.99C357.69 338.15 346.89 323.84 335.4 314.87C318.1 301.37 279.5 277.56 258.03 264.57C250.68 260.13 248.21 250.47 252.54 243.05C256.87 235.61 266.2 232.99 273.77 237.1L409.58 310.7C411.53 311.76 413.95 311.04 415 309.09C416.06 307.15 415.34 304.72 413.39 303.67L394 292.5C395 291 394.75 290.61 394 288.5L369.68 223.56C380.33 222.95 406.24 222.92 429.74 234.1C438.82 238.42 479.98 262.34 502.08 285.9C502.87 286.74 503.93 287.16 505 287.16C505.98 287.16 506.96 286.8 507.74 286.08C509.35 284.56 509.43 282.03 507.92 280.42C484.72 255.7 442.93 231.52 433.17 226.88C405.9 213.9 376.53 214.93 366.88 215.71L345.7 156.31C343.33 149.68 338.86 139.52 332.5 136.5C326.13 133.48 317.14 136.63 310.5 139L189.61 183.98V33.15C189.61 14.6 174.52 -0.5 155.96 -0.5H38.65C20.1 -0.5 5 14.6 5 33.15V243.23C5 261.78 20.1 276.88 38.65 276.88H77.53L116.05 384.88C119.89 395.66 130.08 402.4 140.92 402.4C143.85 402.4 146.84 401.91 149.75 400.87L286.52 352.09C292.79 357.65 313.69 374.95 331.37 374.95C331.41 374.95 331.44 374.95 331.47 374.95C334.43 380.81 342.62 394.57 355.03 396.49C358.1 402.82 367.92 420.28 382.59 420.28C382.7 420.28 382.82 420.28 382.93 420.28C396.24 420.04 407.75 409.61 412.3 404.87C433.13 413.81 463.08 419.98 479.04 422.86L431.94 450.55C431.03 451.09 430.36 451.97 430.1 452.99C429.83 454.02 429.98 455.11 430.52 456.03L457.27 501.53C457.99 502.75 459.3 503.5 460.72 503.5H505C507.21 503.5 509 501.71 509 499.5V452.09C509 450.66 508.24 449.34 507.01 448.63ZM138.45 62.8V95.21H56.16V62.8H138.45ZM56.16 227.18V152.64H138.45V202.22L108 213.5C104.28 214.83 113.72 224.48 111 227.18H56.16ZM147.07 393.33C137.53 396.74 126.99 391.74 123.58 382.19L77.18 252.08C75.53 247.46 108.9 234.5 111 230.06C113.11 225.63 116.05 227.18 108 223L315.5 146C320.12 144.35 325.56 139.89 330 142C334.43 144.1 336.51 154.38 338.16 159L384.1 287.79L308.88 247.02L299.42 241.9L277.58 230.06C266.18 223.88 252.14 227.82 245.62 239.03C241.51 246.08 241.48 254.47 244.8 261.38C244.8 261.38 244.8 263.396 249.66 268.14C250.92 269.37 252.33 270.47 253.89 271.42C275.21 284.32 313.5 307.93 330.48 321.18C332.33 322.63 334.16 324.23 335.98 325.95L147.07 393.33ZM295.2 348.99L342.12 332.26C346.52 337.11 350.89 342.58 355.32 348.34C353.35 353.07 347.05 365.16 333.46 366.83C321.59 368.29 304.75 356.85 295.2 348.99ZM357.76 388.72C350.02 388.61 343.4 379.94 339.82 373.63C350.94 370.29 357.41 361.63 360.74 355.48C361.08 355.92 361.41 356.37 361.75 356.81C366.96 363.72 372.25 370.72 377.7 377.19C374.43 381.15 367 388.72 358 388.72C357.92 388.72 357.84 388.72 357.76 388.72ZM382.78 412.28C382.72 412.28 382.66 412.28 382.6 412.28C374.64 412.28 367.63 402.91 363.79 396.03C372.56 393.94 379.33 387.55 383.04 383.28C389.87 390.73 397.01 397.08 404.63 401.21C400.07 405.53 391.69 412.12 382.78 412.28Z" fill="white"/>
<path d="M96.33 400.77C94.2 400.2 92.01 401.47 91.44 403.6L83.14 434.81C82.57 436.95 83.84 439.14 85.98 439.71C86.32 439.8 86.67 439.84 87.01 439.84C88.78 439.84 90.4 438.66 90.87 436.87L99.17 405.66C99.74 403.53 98.47 401.33 96.33 400.77Z" fill="white"/>
<path d="M58.84 384.88L34.6 406.79C32.96 408.27 32.84 410.8 34.32 412.44C35.11 413.31 36.19 413.76 37.29 413.76C38.24 413.76 39.2 413.42 39.97 412.72L64.2 390.81C65.84 389.33 65.97 386.8 64.49 385.16C63.01 383.52 60.48 383.39 58.84 384.88Z" fill="white"/>
<path d="M50.87 346.22C50.43 344.06 48.32 342.66 46.16 343.09L11.34 350.13C9.17 350.57 7.76999 352.68 8.20999 354.84C8.58999 356.74 10.26 358.05 12.13 358.05C12.39 358.05 12.66 358.03 12.92 357.97L47.74 350.93C49.91 350.5 51.31 348.39 50.87 346.22Z" fill="white"/>
</g>
</g>
<path d="M105.653 217.662L110.303 230.439L71.6539 244.506C68.562 245.632 66.8146 248.39 67.6827 250.775L117.285 387.057C121.564 398.811 137.404 403.849 152.643 398.303L349.5 329L337 316L394 288.5L391.803 282.318L337.55 133.259C336.682 130.874 333.571 129.884 330.479 131.01L109.624 211.394C106.532 212.519 104.785 215.277 105.653 217.662ZM128.328 383.038L80.2755 251.014L91.3182 246.995L120.77 327.913C121.638 330.297 124.749 331.287 127.841 330.162C130.933 329.036 132.681 326.278 131.812 323.893L102.361 242.976L113.404 238.957L159.906 366.721L161.456 370.98C162.014 372.513 162.179 373.996 162.012 375.6C161.602 381.345 156.72 387.173 149.542 389.785C140.377 393.121 130.901 390.107 128.328 383.038ZM334 323L171.517 381.787C172.937 378.473 173.76 374.894 173.386 371.461L325 316L334 323ZM328.057 141.537L385.5 292.601L337 316L325 307.398L170.949 362.702L118.246 217.902L328.057 141.537Z" fill="white"/>
<path d="M141.113 349.446L138.013 340.929C137.145 338.544 134.033 337.554 130.941 338.679C127.849 339.805 126.102 342.563 126.97 344.948L130.07 353.465C130.938 355.85 134.05 356.84 137.142 355.715C140.234 354.589 141.981 351.831 141.113 349.446Z" fill="white"/>
<path d="M214.877 218.885L148.159 243.168C146.791 243.672 145.678 244.697 145.064 246.019C144.451 247.342 144.386 248.853 144.885 250.223L169.168 316.942C169.672 318.31 170.697 319.422 172.019 320.036C173.342 320.65 174.853 320.715 176.223 320.216L242.942 295.932C244.31 295.429 245.422 294.404 246.036 293.081C246.65 291.759 246.715 290.247 246.216 288.877L221.932 222.159C221.429 220.791 220.404 219.678 219.081 219.064C217.759 218.451 216.247 218.386 214.877 218.885ZM244.337 289.561C244.655 290.436 244.613 291.401 244.219 292.245C243.826 293.089 243.113 293.742 242.239 294.06L175.521 318.343C174.647 318.656 173.686 318.61 172.846 318.215C172.007 317.821 171.358 317.11 171.041 316.239L146.757 249.521C146.445 248.647 146.491 247.686 146.885 246.846C147.28 246.007 147.99 245.358 148.862 245.041L215.58 220.757C216.453 220.445 217.415 220.491 218.254 220.885C219.094 221.28 219.743 221.99 220.06 222.862L244.337 289.561Z" fill="white"/>
<path d="M183.309 235.919C177.269 238.113 171.865 241.767 167.577 246.554C163.289 251.342 160.251 257.114 158.732 263.359C158.67 263.618 158.712 263.89 158.851 264.117C158.989 264.344 159.212 264.507 159.471 264.57C159.729 264.632 160.002 264.59 160.229 264.451C160.456 264.313 160.619 264.09 160.681 263.831C162.118 257.904 164.997 252.424 169.063 247.878C173.129 243.333 178.255 239.863 183.986 237.777C189.717 235.691 195.874 235.054 201.911 235.923C207.947 236.792 213.675 239.139 218.585 242.756C218.691 242.834 218.812 242.89 218.939 242.922C219.067 242.954 219.2 242.96 219.33 242.94C219.46 242.92 219.585 242.875 219.698 242.807C219.811 242.739 219.909 242.65 219.987 242.544C220.065 242.438 220.122 242.317 220.153 242.189C220.185 242.062 220.191 241.929 220.171 241.799C220.152 241.668 220.106 241.543 220.038 241.431C219.97 241.318 219.881 241.22 219.775 241.142C214.598 237.334 208.559 234.865 202.198 233.953C195.836 233.042 189.347 233.717 183.309 235.919Z" fill="white"/>
<path d="M213.976 249.009C214.187 249.126 214.433 249.162 214.669 249.112C214.904 249.062 215.114 248.928 215.259 248.735C215.404 248.543 215.474 248.304 215.457 248.064C215.44 247.823 215.337 247.597 215.167 247.427C213.626 246.281 211.978 245.288 210.245 244.461C206.487 242.641 202.402 241.594 198.232 241.381C194.062 241.168 189.892 241.795 185.968 243.223C182.044 244.651 178.447 246.852 175.389 249.695C172.331 252.539 169.875 255.967 168.166 259.777C167.722 260.74 167.332 261.728 166.997 262.735C166.722 263.527 166.516 264.336 166.274 265.222C166.237 265.353 166.228 265.49 166.245 265.624C166.263 265.759 166.308 265.888 166.377 266.005C166.447 266.122 166.539 266.223 166.649 266.303C166.759 266.383 166.884 266.439 167.016 266.469C167.149 266.499 167.286 266.502 167.419 266.477C167.553 266.452 167.68 266.401 167.793 266.325C167.906 266.25 168.002 266.152 168.076 266.038C168.15 265.924 168.2 265.796 168.222 265.662C168.425 264.844 168.641 264.095 168.903 263.35C169.219 262.4 169.59 261.468 170.016 260.561C171.617 256.995 173.917 253.785 176.78 251.123C179.644 248.461 183.012 246.401 186.686 245.064C190.359 243.726 194.264 243.14 198.169 243.339C202.073 243.537 205.898 244.517 209.417 246.22C211.023 247.001 212.55 247.935 213.976 249.009Z" fill="white"/>
<path d="M210.755 253.374C207.954 251.313 204.735 249.89 201.324 249.207C197.914 248.524 194.395 248.597 191.016 249.421C187.637 250.246 184.48 251.8 181.767 253.977C179.054 256.153 176.851 258.898 175.313 262.017C174.964 262.682 174.659 263.368 174.402 264.073C174.036 265.004 173.737 265.959 173.505 266.932C173.445 267.189 173.488 267.459 173.626 267.684C173.763 267.909 173.984 268.07 174.24 268.133C174.368 268.164 174.501 268.17 174.632 268.15C174.762 268.13 174.887 268.084 174.999 268.016C175.112 267.947 175.209 267.857 175.287 267.75C175.364 267.644 175.42 267.523 175.451 267.395C175.665 266.491 175.943 265.604 176.283 264.74C176.508 264.116 176.777 263.509 177.091 262.924C179.56 257.874 183.903 253.986 189.195 252.091C192.572 250.861 196.2 250.485 199.757 250.995C203.314 251.505 206.69 252.885 209.585 255.013C209.797 255.169 210.063 255.235 210.324 255.196C210.585 255.157 210.82 255.016 210.977 254.805C211.06 254.697 211.119 254.574 211.153 254.443C211.186 254.312 211.193 254.176 211.172 254.042C211.151 253.908 211.104 253.78 211.032 253.665C210.96 253.551 210.866 253.452 210.755 253.374Z" fill="white"/>
<path d="M204.876 261.431C205.008 261.527 205.163 261.589 205.325 261.612C205.487 261.635 205.652 261.617 205.806 261.561C205.994 261.493 206.157 261.371 206.274 261.209C206.352 261.103 206.407 260.983 206.438 260.855C206.469 260.727 206.474 260.594 206.454 260.464C206.433 260.334 206.387 260.21 206.318 260.098C206.249 259.985 206.159 259.888 206.053 259.811C203.948 258.266 201.494 257.264 198.909 256.894C196.324 256.524 193.688 256.798 191.234 257.691C188.78 258.584 186.585 260.069 184.842 262.014C183.1 263.959 181.864 266.303 181.245 268.84C181.18 269.098 181.221 269.37 181.358 269.598C181.495 269.826 181.716 269.99 181.974 270.054C182.231 270.118 182.504 270.078 182.732 269.941C182.959 269.804 183.123 269.583 183.188 269.325C183.726 267.105 184.805 265.053 186.327 263.35C187.85 261.648 189.77 260.349 191.917 259.567C194.063 258.786 196.369 258.547 198.63 258.873C200.891 259.198 203.036 260.077 204.876 261.431Z" fill="white"/>
<path d="M230.419 275.269C228.983 281.196 226.104 286.676 222.038 291.222C217.972 295.768 212.846 299.238 207.115 301.323C201.384 303.409 195.226 304.046 189.19 303.178C183.154 302.309 177.425 299.962 172.515 296.345C172.409 296.266 172.289 296.21 172.161 296.178C172.033 296.147 171.9 296.141 171.77 296.16C171.64 296.18 171.515 296.225 171.402 296.293C171.29 296.361 171.191 296.451 171.113 296.557C171.035 296.663 170.979 296.783 170.947 296.911C170.916 297.039 170.909 297.172 170.929 297.302C170.949 297.432 170.994 297.557 171.062 297.67C171.13 297.782 171.22 297.881 171.326 297.959C176.503 301.782 182.546 304.264 188.915 305.184C195.285 306.105 201.783 305.434 207.831 303.233C213.879 301.032 219.288 297.368 223.576 292.569C227.863 287.77 230.897 281.984 232.406 275.727C232.468 275.469 232.426 275.196 232.287 274.969C232.149 274.742 231.926 274.58 231.667 274.517C231.409 274.454 231.136 274.497 230.909 274.636C230.682 274.774 230.519 274.997 230.457 275.256L230.419 275.269Z" fill="white"/>
<path d="M175.937 291.683C176.664 292.217 177.369 292.694 178.077 293.118C178.979 293.676 179.913 294.182 180.874 294.633C184.633 296.451 188.719 297.497 192.889 297.709C197.06 297.921 201.231 297.294 205.155 295.866C209.079 294.438 212.677 292.237 215.736 289.394C218.794 286.551 221.252 283.123 222.963 279.313C223.745 277.568 224.36 275.751 224.798 273.889C224.819 273.648 224.753 273.409 224.611 273.214C224.47 273.019 224.262 272.881 224.027 272.827C223.793 272.772 223.546 272.805 223.333 272.918C223.12 273.031 222.955 273.217 222.869 273.441C222.458 275.176 221.883 276.867 221.153 278.493C219.552 282.061 217.252 285.272 214.388 287.935C211.524 290.598 208.155 292.66 204.48 293.997C200.805 295.335 196.899 295.921 192.994 295.722C189.088 295.523 185.262 294.542 181.742 292.837C180.834 292.415 179.95 291.941 179.097 291.416C178.431 291.02 177.783 290.585 177.102 290.088C177 289.986 176.877 289.906 176.742 289.856C176.606 289.805 176.461 289.784 176.317 289.795C176.173 289.806 176.032 289.848 175.906 289.918C175.779 289.989 175.67 290.086 175.584 290.202C175.499 290.319 175.44 290.453 175.411 290.595C175.383 290.737 175.385 290.883 175.419 291.024C175.453 291.165 175.516 291.297 175.606 291.411C175.695 291.524 175.808 291.617 175.937 291.683Z" fill="white"/>
<path d="M183.86 285.586C183.05 285.135 182.271 284.633 181.525 284.084C181.419 284.005 181.299 283.948 181.171 283.917C181.043 283.885 180.91 283.879 180.78 283.898C180.65 283.918 180.525 283.963 180.412 284.032C180.299 284.1 180.201 284.19 180.123 284.296C180.041 284.403 179.981 284.526 179.948 284.657C179.914 284.788 179.907 284.925 179.928 285.059C179.949 285.192 179.997 285.32 180.069 285.435C180.14 285.55 180.235 285.649 180.346 285.726C181.15 286.32 181.993 286.859 182.87 287.34C183.496 287.7 184.148 288.014 184.819 288.28C190.435 290.797 196.814 291.016 202.589 288.889C206.274 287.554 209.572 285.329 212.19 282.412C214.808 279.495 216.665 275.976 217.595 272.168C217.635 272.038 217.647 271.901 217.632 271.766C217.617 271.631 217.575 271.5 217.508 271.382C217.44 271.264 217.35 271.161 217.241 271.079C217.133 270.997 217.009 270.938 216.877 270.906C216.744 270.873 216.607 270.868 216.473 270.891C216.339 270.913 216.211 270.963 216.097 271.036C215.982 271.11 215.884 271.206 215.808 271.319C215.733 271.432 215.681 271.559 215.656 271.693C214.902 274.796 213.476 277.696 211.478 280.187C209.48 282.678 206.959 284.699 204.093 286.109C201.228 287.518 198.088 288.281 194.895 288.343C191.703 288.405 188.535 287.765 185.617 286.468C185.012 286.215 184.424 285.92 183.86 285.586Z" fill="white"/>
<path d="M185.048 279.29C187.153 280.835 189.607 281.837 192.192 282.206C194.777 282.576 197.413 282.302 199.866 281.409C202.32 280.516 204.516 279.031 206.258 277.086C208.001 275.142 209.236 272.797 209.856 270.26C209.92 270.003 209.879 269.73 209.743 269.502C209.606 269.275 209.384 269.111 209.127 269.046C208.869 268.982 208.596 269.023 208.369 269.16C208.141 269.296 207.977 269.518 207.913 269.776C207.375 271.995 206.296 274.048 204.773 275.75C203.25 277.452 201.33 278.752 199.184 279.533C197.037 280.314 194.731 280.553 192.47 280.228C190.209 279.903 188.064 279.024 186.225 277.669C186.01 277.513 185.742 277.449 185.48 277.491C185.217 277.532 184.982 277.676 184.826 277.891C184.67 278.106 184.606 278.374 184.647 278.636C184.689 278.899 184.833 279.134 185.048 279.29Z" fill="white"/>
<path d="M189.912 271.602C190.318 272.717 191.045 273.687 192.002 274.389C192.959 275.091 194.103 275.493 195.289 275.545C196.474 275.596 197.648 275.295 198.663 274.68C199.677 274.064 200.487 273.161 200.988 272.086C201.49 271.01 201.661 269.81 201.48 268.637C201.3 267.465 200.776 266.372 199.974 265.497C199.172 264.622 198.129 264.004 196.976 263.722C195.824 263.44 194.613 263.506 193.498 263.912C192.003 264.456 190.785 265.572 190.112 267.015C189.44 268.457 189.368 270.107 189.912 271.602ZM199.309 268.182C199.58 268.926 199.624 269.733 199.436 270.501C199.248 271.269 198.836 271.965 198.253 272.499C197.669 273.034 196.941 273.383 196.159 273.504C195.377 273.624 194.577 273.51 193.86 273.175C193.143 272.841 192.541 272.302 192.131 271.625C191.72 270.949 191.52 270.166 191.554 269.376C191.589 268.585 191.857 267.823 192.324 267.185C192.792 266.547 193.439 266.062 194.182 265.791C195.179 265.429 196.279 265.477 197.241 265.925C198.202 266.373 198.946 267.185 199.309 268.182Z" fill="white"/>
</g>
<defs>
<filter id="filter0_d_10_2" x="1" y="-0.5" width="512.002" height="512" filterUnits="userSpaceOnUse" color-interpolation-filters="sRGB">
<feFlood flood-opacity="0" result="BackgroundImageFix"/>
<feColorMatrix in="SourceAlpha" type="matrix" values="0 0 0 0 0 0 0 0 0 0 0 0 0 0 0 0 0 0 127 0" result="hardAlpha"/>
<feOffset dy="4"/>
<feGaussianBlur stdDeviation="2"/>
<feComposite in2="hardAlpha" operator="out"/>
<feColorMatrix type="matrix" values="0 0 0 0 0 0 0 0 0 0 0 0 0 0 0 0 0 0 0.25 0"/>
<feBlend mode="normal" in2="BackgroundImageFix" result="effect1_dropShadow_10_2"/>
<feBlend mode="normal" in="SourceGraphic" in2="effect1_dropShadow_10_2" result="shape"/>
</filter>
<clipPath id="clip0_10_2">
<rect width="510" height="512" fill="white"/>
</clipPath>
</defs>
</svg>
