<svg width="504" height="504" viewBox="0 0 504 504" fill="none" xmlns="http://www.w3.org/2000/svg">
<path d="M502.01 449.13C500.78 448.41 499.26 448.4 498.02 449.11L447.37 477.91L434.44 455.92L502.03 416.19C503.93 415.07 504.57 412.62 503.45 410.71C502.33 408.81 499.88 408.17 497.97 409.29L484.75 417.06C476.01 415.67 427.97 407.57 403.89 394.92C389.42 387.31 376.05 369.61 363.13 352.49C352.69 338.65 341.89 324.34 330.4 315.37C313.1 301.87 274.5 278.06 253.03 265.07C245.68 260.63 243.21 250.97 247.54 243.55C251.87 236.11 261.2 233.49 268.77 237.6L404.58 311.2C406.53 312.26 408.95 311.54 410 309.59C411.06 307.65 410.34 305.22 408.39 304.17L388.53 293.4C388.33 291.2 387.85 289.03 387.1 286.92L364.68 224.06C375.33 223.45 401.24 223.42 424.74 234.6C433.82 238.92 474.98 262.84 497.08 286.4C497.87 287.24 498.93 287.66 500 287.66C500.98 287.66 501.96 287.3 502.74 286.58C504.35 285.06 504.43 282.53 502.92 280.92C479.72 256.2 437.93 232.02 428.17 227.38C400.9 214.4 371.53 215.43 361.88 216.21L340.7 156.81C338.33 150.18 333.52 144.86 327.16 141.84C320.79 138.82 313.63 138.46 306.99 140.83L184.61 184.48V33.65C184.61 15.1 169.52 0 150.96 0H33.65C15.1 0 0 15.1 0 33.65V243.73C0 262.28 15.1 277.38 33.65 277.38H72.53L111.05 385.38C114.89 396.16 125.08 402.9 135.92 402.9C138.85 402.9 141.84 402.41 144.75 401.37L281.52 352.59C287.79 358.15 308.69 375.45 326.37 375.45C326.41 375.45 326.44 375.45 326.47 375.45C329.43 381.31 337.62 395.07 350.03 396.99C353.1 403.32 362.92 420.78 377.59 420.78C377.7 420.78 377.82 420.78 377.93 420.78C391.24 420.54 402.75 410.11 407.3 405.37C428.13 414.31 458.08 420.48 474.04 423.36L426.94 451.05C426.03 451.59 425.36 452.47 425.1 453.49C424.83 454.52 424.98 455.61 425.52 456.53L452.27 502.03C452.99 503.25 454.3 504 455.72 504H500C502.21 504 504 502.21 504 500V452.59C504 451.16 503.24 449.84 502.01 449.13ZM133.45 63.3V95.71H51.16V63.3H133.45ZM51.16 227.68V153.14H133.45V202.72L80.63 221.56C76.91 222.89 73.61 224.98 70.89 227.68H51.16ZM142.07 393.83C132.53 397.24 121.99 392.24 118.58 382.69L72.18 252.58C70.53 247.96 70.78 242.97 72.88 238.53C74.99 234.1 78.69 230.75 83.31 229.1L309.68 148.36C314.3 146.71 319.29 146.96 323.73 149.07C328.16 151.17 331.51 154.88 333.16 159.5L379.1 288.29L303.88 247.52L328.34 238.8C330.42 238.06 331.51 235.77 330.77 233.69C330.02 231.61 327.74 230.52 325.66 231.26L294.42 242.4L272.58 230.56C261.18 224.38 247.14 228.32 240.62 239.53C236.51 246.58 236.48 254.97 239.8 261.88L207.73 273.32C205.65 274.06 204.56 276.35 205.3 278.43C205.89 280.07 207.43 281.09 209.07 281.09C209.52 281.09 209.97 281.02 210.41 280.86L244.66 268.64C245.92 269.87 247.33 270.97 248.89 271.92C270.21 284.82 308.5 308.43 325.48 321.68C327.33 323.13 329.16 324.73 330.98 326.45L142.07 393.83ZM290.2 349.49L337.12 332.76C341.52 337.61 345.89 343.08 350.32 348.84C348.35 353.57 342.05 365.66 328.46 367.33C316.59 368.79 299.75 357.35 290.2 349.49ZM352.76 389.22C345.02 389.11 338.4 380.44 334.82 374.13C345.94 370.79 352.41 362.13 355.74 355.98C356.08 356.42 356.41 356.87 356.75 357.31C361.96 364.22 367.25 371.22 372.7 377.69C369.43 381.65 362 389.22 353 389.22C352.92 389.22 352.84 389.22 352.76 389.22ZM377.78 412.78C377.72 412.78 377.66 412.78 377.6 412.78C369.64 412.78 362.63 403.41 358.79 396.53C367.56 394.44 374.33 388.05 378.04 383.78C384.87 391.23 392.01 397.58 399.63 401.71C395.07 406.03 386.69 412.62 377.78 412.78Z" fill="#fff"/>
<path d="M191.23 231.07C191.68 231.07 192.13 231 192.58 230.84L310.5 188.78C312.58 188.04 313.67 185.75 312.93 183.67C312.19 181.59 309.9 180.5 307.82 181.24L189.89 223.3C187.81 224.05 186.72 226.33 187.46 228.42C188.05 230.05 189.59 231.07 191.23 231.07Z" fill="#fff"/>
<path d="M190.43 287.03C183.96 282.02 177.18 279.78 172.52 278.78C175.18 271.72 175.38 263.28 172.46 255.11C166.55 238.54 150.09 229.22 135.77 234.32C121.45 239.43 114.6 257.07 120.51 273.64C123.43 281.82 128.92 288.21 135.46 291.99C132.48 295.72 128.64 301.74 126.8 309.73C123.69 323.22 129.34 344.28 129.58 345.17C129.87 346.25 130.6 347.15 131.59 347.67C132.17 347.97 132.8 348.12 133.44 348.12C133.89 348.12 134.35 348.04 134.79 347.89L208.39 321.64C209.44 321.26 210.29 320.47 210.73 319.44C211.17 318.42 211.16 317.26 210.7 316.24C210.33 315.4 201.38 295.51 190.43 287.03ZM128.04 270.95C123.62 258.54 128.29 245.49 138.46 241.86C140.25 241.22 142.09 240.92 143.94 240.92C152.58 240.92 161.28 247.57 164.92 257.79C169.35 270.21 164.68 283.26 154.51 286.88C144.35 290.51 132.47 283.36 128.04 270.95Z" fill="#fff"/>
<path d="M93.33 401.77C91.2 401.2 89.01 402.47 88.44 404.6L80.14 435.81C79.57 437.95 80.84 440.14 82.98 440.71C83.32 440.8 83.67 440.84 84.01 440.84C85.78 440.84 87.4 439.66 87.87 437.87L96.17 406.66C96.74 404.53 95.47 402.33 93.33 401.77Z" fill="#fff"/>
<path d="M55.84 385.88L31.6 407.79C29.96 409.27 29.84 411.8 31.32 413.44C32.11 414.31 33.19 414.76 34.29 414.76C35.24 414.76 36.2 414.42 36.97 413.72L61.2 391.81C62.84 390.33 62.97 387.8 61.49 386.16C60.01 384.52 57.48 384.39 55.84 385.88Z" fill="#fff"/>
<path d="M47.87 347.22C47.43 345.06 45.32 343.66 43.16 344.09L8.34 351.13C6.17 351.57 4.76999 353.68 5.20999 355.84C5.58999 357.74 7.25999 359.05 9.12999 359.05C9.38999 359.05 9.65999 359.03 9.91999 358.97L44.74 351.93C46.91 351.5 48.31 349.39 47.87 347.22Z" fill="#fff"/>
</svg>
