<svg width="100" height="90" viewBox="0 0 100 90" fill="none" xmlns="http://www.w3.org/2000/svg">
<path d="M44.9316 88.3563C20.685 88.3563 1.09595 68.5846 1.09595 44.5207C1.09595 20.4567 20.685 0.685059 44.9316 0.685059C61.5526 0.685059 76.8494 9.86314 84.064 24.9316C84.6576 26.1188 84.2466 27.4887 83.1051 28.0823C81.9179 28.6759 80.548 28.265 79.9544 27.1234C73.1051 13.6074 59.5891 5.38826 44.7489 5.38826C23.0138 5.38826 5.6165 23.0138 5.6165 44.5207C5.6165 66.0275 23.2421 83.6531 44.7489 83.6531C53.7444 83.6531 62.7398 80.5024 69.5891 74.6577C70.548 73.8814 72.1462 74.0641 72.9224 75.0686C73.6987 76.0732 73.516 77.6257 72.5115 78.402C64.8859 84.8403 54.8859 88.3563 44.9316 88.3563Z" fill="white"/>
<path fill-rule="evenodd" clip-rule="evenodd" d="M47.6712 46.6668C46.1187 46.6668 44.7488 47.443 43.9726 48.6302C43.1963 49.5891 42.7854 51.1873 42.7854 52.3289C42.7854 54.475 44.1552 55.6622 46.3014 55.6622C47.6712 55.6622 48.6301 55.2512 49.452 55.0686L49.0411 53.6987C48.4475 53.8814 47.6712 54.2923 46.7123 54.2923C45.3424 54.2923 44.9315 53.5161 44.9315 52.3289L50.2283 51.5526C50.4109 50.959 50.4109 50.3654 50.4109 50.0001C50.5936 47.854 49.589 46.6668 47.6712 46.6668ZM48.2192 50.4111L45.0685 51.0047C45.2511 50.4111 45.2511 50.0458 45.4794 49.6348C45.8904 48.8585 46.4383 48.2649 47.2603 48.2649C48.0822 48.2649 48.4475 48.6759 48.4475 49.6348C48.4475 49.8175 48.4475 50.1828 48.2192 50.4111ZM50.9589 52.5572C50.9589 54.5206 52.1461 55.7079 53.8813 55.7079C54.4749 55.7079 55.2511 55.5252 55.6621 55.2969L55.4794 55.8905C55.2968 56.4841 54.7032 56.6668 53.3333 56.6668C52.5571 56.6668 51.7808 56.4841 51.1872 56.0732L50.2283 57.6257C51.0045 58.0366 52.3744 58.4019 53.5616 58.4019C56.1187 58.4019 57.4886 57.443 57.8539 55.6622L59.4064 47.2604C58.6301 46.8494 57.4429 46.6668 56.2557 46.6668C52.1461 46.6668 50.9589 50.5937 50.9589 52.5572ZM56.073 53.927C55.8904 54.1097 55.2968 54.1097 55.1141 54.1097C54.1552 54.1097 53.7443 53.5161 53.7443 52.5572C53.7443 51.7809 54.1552 50.4111 54.3379 49.8175C54.7488 48.8585 55.5251 48.2649 56.3014 48.2649C56.7123 48.2649 57.0776 48.2649 57.2603 48.4476L56.073 53.927ZM61.3698 47.443L59.8173 55.8449H62.1461L63.516 48.4019C63.6986 48.2193 64.2922 48.2193 64.7032 48.2193C65.1141 48.2193 65.2968 48.2193 65.6621 48.4019L66.4383 46.6211H65.2511C63.6986 46.6668 62.3287 46.8494 61.3698 47.443ZM70.3653 46.6668C68.8128 46.6668 67.4429 47.443 66.6666 48.6302C65.8904 49.5891 65.4794 51.1873 65.4794 52.3289C65.4794 54.475 66.8493 55.6622 68.9954 55.6622C70.3653 55.6622 71.3242 55.2512 72.1461 55.0686L71.9635 53.5161C71.3698 53.6987 70.5936 54.1097 69.6347 54.1097C68.2648 54.1097 67.8539 53.3334 67.8539 52.1462L73.1507 51.37C73.3333 50.7764 73.3333 50.1827 73.3333 49.8175C73.2877 47.854 72.3288 46.6668 70.3653 46.6668ZM70.9589 50.4111L67.8082 50.822C67.9908 50.2284 67.9908 49.8631 68.2192 49.4522C68.6301 48.6759 69.1781 48.0823 70 48.0823C70.8219 48.0823 71.1872 48.4933 71.1872 49.4522C71.1415 49.8175 71.1415 50.1828 70.9589 50.4111ZM78.7671 46.6668C77.2146 46.6668 75.8447 47.443 75.0685 48.6302C74.2922 49.5891 73.8813 51.1873 73.8813 52.3289C73.8813 54.475 75.2511 55.6622 77.3972 55.6622C78.7671 55.6622 79.726 55.2512 80.5479 55.0686L80.3653 53.5161C79.7717 53.6987 78.9954 54.1097 78.0365 54.1097C76.6666 54.1097 76.2557 53.3334 76.2557 52.1462L81.5525 51.37C81.7351 50.7764 81.7351 50.1827 81.7351 49.8175C81.6895 47.854 80.5479 46.6668 78.7671 46.6668ZM79.3607 50.4111L76.21 50.822C76.3927 50.2284 76.3927 49.8631 76.621 49.4522C77.0319 48.6759 77.5799 48.0823 78.4018 48.0823C79.1781 48.0823 79.589 48.4933 79.589 49.4522C79.5434 49.8175 79.3607 50.1828 79.3607 50.4111ZM82.694 50.0001C82.694 52.1462 85.0228 51.9636 85.0228 52.9225C85.0228 53.5161 84.6119 54.2923 82.8767 53.8814C82.2831 53.6987 82.1004 54.064 81.9178 54.2923C81.7351 54.475 81.3242 55.2512 81.3242 55.2512C81.3242 55.2512 82.1004 56.0275 83.6529 56.0275C86.3927 56.0275 87.5799 54.2467 87.5799 52.6942C87.5799 50.7307 85.0228 50.7307 85.0228 49.5435C85.0228 48.9499 85.6164 48.3563 86.5753 48.5846C86.9863 48.5846 87.5342 48.9955 88.1278 48.1736L88.5388 47.3974C88.5388 47.3974 87.7625 46.6211 85.9817 46.6211C83.8356 46.6668 82.694 48.4476 82.694 50.0001ZM42.3744 45.1143H40.2283L39.8173 47.2604H39.6347C39.2237 47.2604 38.8584 47.0777 38.4475 47.0777C37.0776 47.0777 35.7077 47.6713 34.7488 48.8585C33.9726 49.8175 33.5616 51.4156 33.5616 52.7855C33.5616 54.9316 35.1141 56.1188 37.2603 56.1188C38.8128 56.1188 39.8173 55.7079 40.5936 55.5252L42.5571 45.9362C42.968 45.4796 42.7397 45.1143 42.3744 45.1143ZM38.6301 54.2923C38.4475 54.475 38.0365 54.475 37.8539 54.475C36.895 54.475 36.484 53.8814 36.484 52.9225C36.484 51.9636 36.895 50.7764 37.2603 49.7718C37.6712 48.9955 38.2192 48.5846 39.2237 48.5846H40L38.6301 54.2923ZM41.3698 60.959C40.5936 61.9179 40.1826 63.6987 40.1826 65.0686C40.1826 67.2147 41.5525 68.5846 43.3333 68.5846C44.2922 68.5846 45.2968 68.1736 45.6621 67.991L45.4794 66.4385C45.2968 66.6211 44.7032 66.8494 44.2922 66.8494C43.516 66.8494 43.105 66.2558 43.105 65.0686C43.105 64.2923 43.516 62.9225 43.8813 62.3289C44.2922 61.5526 45.0685 61.1417 45.6621 61.1417C46.073 61.1417 46.4383 61.3243 46.621 61.5526L47.3972 60.1828C46.9863 59.7718 46.21 59.5891 45.0685 59.5891C43.7443 58.9955 42.3744 59.7718 41.3698 60.959ZM68.4018 59.4065C66.8493 59.4065 65.4794 60.1827 64.7032 61.37C63.9269 62.3289 63.516 63.927 63.516 65.0686C63.516 67.2147 64.8858 68.4019 67.0319 68.4019C68.4018 68.4019 69.3607 67.991 70.1826 67.8083L70 66.2558C69.4064 66.4385 68.6301 66.8494 67.6712 66.8494C66.3013 66.8494 65.8904 66.0732 65.8904 64.886L71.1872 64.1097C71.3698 63.5161 71.3698 62.9225 71.3698 62.5572C71.3242 60.3654 70.3653 59.4065 68.4018 59.4065ZM68.9954 63.1051L65.8447 63.5161C66.0274 62.9225 66.0274 62.5572 66.2557 62.1462C66.6666 61.37 67.2146 60.7764 68.0365 60.7764C68.8128 60.7764 69.2237 61.1873 69.2237 62.1462C69.1781 62.3289 69.1781 62.7398 68.9954 63.1051ZM82.4657 59.4065C81.0959 59.4065 79.9087 59.8175 79.315 60.3654C78.9041 59.7718 77.9452 59.5891 76.758 59.5891C75.3881 59.5891 74.0182 59.7718 73.0593 60.1828L71.5068 68.4019H74.0639L75.4338 61.1417C75.8447 60.959 76.0274 60.959 76.3927 60.959C77.1689 60.959 77.5799 61.37 77.5799 61.7353V62.1462L76.3927 68.4019H78.9497L80.3196 61.5526C80.7306 61.37 81.0959 61.1417 81.5068 61.1417C82.2831 61.1417 82.4657 61.5526 82.4657 61.9179V62.3289L81.2785 68.5846H83.8356L85.0228 62.5115V61.9179C85.0228 60.1828 84.2466 59.4065 82.4657 59.4065ZM85.2055 68.4019H87.5799L89.3151 59.5891H86.8036L85.2055 68.4019ZM94.4292 59.4065C92.8767 59.4065 91.5068 60.1827 90.7306 61.37C89.9543 62.3289 89.5434 63.927 89.5434 65.0686C89.5434 67.2147 90.9132 68.4019 93.0593 68.4019C94.4292 68.4019 95.3881 67.991 96.21 67.8083L95.7991 66.2558C95.2055 66.4385 94.4292 66.8494 93.4703 66.8494C92.1004 66.8494 91.6895 66.0732 91.6895 64.886L96.9863 64.1097C97.1689 63.5161 97.1689 62.9225 97.1689 62.5572C97.3516 60.548 96.1644 59.4065 94.4292 59.4065ZM95.0228 63.1051L91.8721 63.5161C92.0548 62.9225 92.0548 62.5572 92.2831 62.1462C92.694 61.37 93.242 60.7764 94.0639 60.7764C94.8858 60.7764 95.2511 61.1873 95.2511 62.1462C95.2055 62.5115 95.0228 62.7398 95.0228 63.1051ZM36.895 58.9955C35.3424 58.9955 34.1552 59.4065 33.9726 59.5891C33.1963 60.0001 33.379 60.7764 33.5616 61.5526C34.1552 61.37 35.1141 60.959 35.8904 60.959C36.8493 60.959 37.2603 61.1417 37.0776 61.9179C36.895 62.6942 36.1187 66.6211 36.1187 66.6211C35.9361 66.8038 33.9726 67.2147 33.9726 65.8448C33.9726 64.475 34.9315 64.064 35.5251 63.6987C35.9361 63.5161 35.9361 62.5115 36.1187 62.3289C33.9726 62.7398 31.8265 63.2878 31.4155 65.4796C31.0045 67.6713 32.3744 68.4019 34.7488 68.4019C37.1233 68.4019 38.4475 67.6257 38.4475 67.6257C38.4475 67.6257 39.2237 63.3334 39.4064 62.1462C39.589 61.1873 39.589 60.1827 38.9954 59.5891C38.8584 59.4065 38.0822 58.9955 36.895 58.9955Z" fill="#202844"/>
<path fill-rule="evenodd" clip-rule="evenodd" d="M51.5525 58.9954C50 58.9954 48.8128 59.4064 48.6301 59.589C47.8539 60 48.0365 60.7762 48.2192 61.5525C48.8128 61.3698 49.7717 60.9589 50.5479 60.9589C51.3242 60.9589 51.9178 61.1415 51.7352 61.9178C51.5525 62.694 50.7763 66.621 50.7763 66.621C50.5936 66.8036 48.6301 67.2146 48.6301 65.8447C48.6301 64.4749 49.589 64.0639 50.1826 63.6986C50.5936 63.516 50.5936 62.5114 50.7763 62.3287C48.6301 62.7397 46.484 63.2876 46.0731 65.4794C45.6621 67.6255 47.032 68.4018 49.4064 68.4018C51.7808 68.4018 53.105 67.6255 53.105 67.6255C53.105 67.6255 53.8813 63.3333 54.0639 62.1461C54.2466 61.1872 54.2466 60.1826 53.653 59.589C53.516 59.4064 52.7397 58.9954 51.5525 58.9954ZM63.516 57.4429H61.3699L60.9589 59.589H60.7763C60.3653 59.589 60 59.4064 59.589 59.4064C58.2192 59.4064 56.8493 60 55.8904 61.1872C55.1142 62.1461 54.7032 63.7443 54.7032 65.1141C54.7032 67.2603 56.2557 68.4475 58.4018 68.4475C59.9543 68.4475 60.9589 68.0365 61.7352 67.8539L63.6986 58.0822C63.8813 57.8082 63.8813 57.4429 63.516 57.4429ZM59.589 66.621C59.4064 66.8036 58.9954 66.8036 58.8128 66.8036C57.8539 66.8036 57.4429 66.21 57.4429 65.2511C57.4429 64.2922 57.8539 62.9223 58.2192 62.1004C58.6301 61.3242 59.1781 60.7306 60.1827 60.7306H60.9589L59.589 66.621ZM88.7671 56.4383C87.9909 56.4383 87.2146 57.0319 87.2146 57.8082C87.2146 58.4018 87.6256 58.7671 88.4018 58.7671C89.1781 58.7671 89.9543 58.1735 89.9543 57.3972C89.726 57.0319 89.3151 56.4383 88.7671 56.4383ZM77.3973 31.5981C76.621 31.5981 75.8448 32.1918 75.8448 32.968C75.8448 33.5616 76.2557 33.9269 77.032 33.9269C77.8082 33.9269 78.5845 33.3333 78.5845 32.5571C78.5845 32.0091 77.9909 31.5981 77.3973 31.5981ZM63.105 34.1552C59.4064 34.1552 58.0365 37.6712 58.0365 40.0456C58.0365 42.1918 59.2237 43.5616 61.3699 43.5616C65.0685 43.5616 66.4384 39.863 66.4384 37.6712C66.4384 35.4794 65.4795 34.1552 63.105 34.1552ZM63.2877 40.4109C62.8767 41.3698 62.3288 41.7808 61.7352 41.7808C60.9589 41.7808 60.7763 41.1872 60.7763 40.2283C60.7763 39.452 61.1872 37.8995 61.3699 37.0776C61.7808 36.3013 62.1461 35.7077 62.9224 35.7077C63.6986 35.7077 63.8813 36.3013 63.8813 37.2602C63.8813 38.2648 63.6986 39.6347 63.2877 40.4109ZM68.4018 35.8904C67.6256 36.8493 67.2146 38.6301 67.2146 40C67.2146 42.1461 68.5845 43.516 70.3653 43.516C71.3242 43.516 72.3288 43.105 72.6941 42.9223L72.5114 41.3698C72.3288 41.5525 71.7352 41.7808 71.3242 41.7808C70.5479 41.7808 70.137 41.1872 70.137 40C70.137 39.2237 70.5479 37.8539 70.9132 37.2602C71.3242 36.484 72.1005 36.073 72.6941 36.073C73.105 36.073 73.4703 36.2557 73.653 36.484L74.4292 35.1141C74.0183 34.7032 73.242 34.5205 72.1005 34.5205C70.7306 34.1552 69.3607 34.7488 68.4018 35.8904ZM73.6986 43.1507H76.21L77.9909 34.5205H75.4338L73.6986 43.1507ZM90.6849 31.7808L88.1279 32.5571L87.7169 34.5205H86.758L86.347 36.3013H87.3059L86.347 41.0045C86.347 41.1872 86.1644 41.5981 86.1644 41.7808C86.1644 43.1507 86.9406 43.9269 88.4932 43.9269C89.0868 43.9269 89.4521 43.7443 89.863 43.7443L90.274 42.1918C90.0913 42.1918 89.863 42.3744 89.6804 42.3744C89.2694 42.3744 88.7215 42.1918 88.7215 41.7808V41.3698L89.6804 36.6666H90.8676L91.2785 34.8858H90.0913L90.6849 31.7808ZM95.9817 34.3379C94.4292 34.3379 93.0594 35.1141 92.2831 36.3013C91.5069 37.2602 91.0959 38.8584 91.0959 40C91.0959 42.1461 92.4658 43.3333 94.6119 43.3333C95.9817 43.3333 96.9406 42.9223 97.7626 42.7397L97.5799 41.1872C96.9863 41.3698 96.21 41.7808 95.2511 41.7808C93.8813 41.7808 93.4703 41.0045 93.4703 39.8173L98.7671 39.0411C98.9498 38.4475 98.9498 37.8539 98.9498 37.4886C98.9041 35.3424 97.9452 34.3379 95.9817 34.3379ZM96.758 38.0822L93.6073 38.4931C93.79 37.8995 93.79 37.5342 94.0183 37.1233C94.4292 36.347 94.9772 35.7534 95.7991 35.7534C96.621 35.7534 96.9863 36.1644 96.9863 37.1233C96.758 37.2602 96.758 37.6712 96.758 38.0822ZM45.8904 37.2602C45.8904 39.4064 48.2192 39.2237 48.2192 40.1826C48.2192 40.7762 47.8082 41.5525 46.0731 41.1415C45.4795 40.9589 45.2968 41.3242 45.1142 41.5525C44.9315 41.7808 44.5205 42.5114 44.5205 42.5114C44.5205 42.5114 45.2968 43.2876 46.8493 43.2876C49.589 43.2876 50.7763 41.5068 50.7763 39.9543C50.7763 37.9908 48.2192 37.9908 48.2192 36.8036C48.2192 36.21 48.8128 35.6164 49.7717 35.8447C50.1826 35.8447 50.7306 36.2557 51.3242 35.4338L51.7352 34.6575C51.7352 34.6575 50.9589 33.8812 49.1781 33.8812C47.0776 34.1552 45.8904 35.7077 45.8904 37.2602ZM52.3288 37.2602C52.3288 39.4064 54.6575 39.2237 54.6575 40.1826C54.6575 40.7762 54.2466 41.5525 52.5114 41.1415C51.9178 40.9589 51.7352 41.3242 51.5525 41.5525C51.3699 41.7808 50.9589 42.5114 50.9589 42.5114C50.9589 42.5114 51.7352 43.2876 53.2877 43.2876C56.0274 43.2876 57.2146 41.5068 57.2146 39.9543C57.2146 37.9908 54.6575 37.9908 54.6575 36.8036C54.6575 36.21 55.2511 35.6164 56.21 35.8447C56.621 35.8447 57.169 36.2557 57.7626 35.4338L58.1735 34.6575C58.1735 34.6575 57.3973 33.8812 55.6164 33.8812C53.6986 34.1552 52.3288 35.7077 52.3288 37.2602ZM41.7808 34.1552C40.2283 34.1552 39.0411 34.5662 38.8584 34.7488C38.0822 35.1598 38.2648 35.936 38.4475 36.7123C39.0411 36.5297 39.8174 36.1187 40.7763 36.1187C41.7352 36.1187 42.1461 36.3013 41.9635 37.0776C41.9635 37.6712 41.1872 41.5981 41.0046 41.5981C40.8219 41.7808 38.8584 42.1918 38.8584 40.8219C38.8584 39.452 39.8174 39.0411 40.411 38.6758C40.8219 38.4931 40.8219 37.4886 41.0046 37.3059C38.8585 37.7169 36.7123 38.2648 36.3014 40.4566C35.8904 42.6027 37.2603 43.379 39.6347 43.379C42.0091 43.379 43.1507 42.6027 43.1507 42.6027C43.1507 42.6027 43.9269 38.3105 44.1096 37.3059C44.2922 36.347 44.2922 35.3424 43.6986 34.7488C43.7443 34.3379 42.7397 34.1552 41.7808 34.1552ZM83.0594 34.3379C81.5068 34.3379 80.3196 34.7488 80.137 34.9315C79.3607 35.3424 79.5434 36.1187 79.726 36.895C80.3196 36.7123 81.0959 36.3013 82.0548 36.3013C83.0137 36.3013 83.4247 36.484 83.242 37.2602C83.0594 38.0365 82.2831 41.9634 82.2831 41.9634C82.1005 42.1461 80.137 42.557 80.137 41.1872C80.137 39.8173 81.0959 39.4064 81.6895 39.0411C82.1005 38.8584 82.1005 37.8539 82.2831 37.6712C80.137 38.0822 77.9909 38.6301 77.5799 40.8219C77.1689 43.0137 78.5388 43.7443 80.9132 43.7443C83.242 43.7443 84.4292 42.968 84.4292 42.968C84.4292 42.968 85.2055 38.6758 85.3881 37.6712C85.5708 36.7123 85.5708 35.7077 84.9772 35.1141C84.8402 34.5205 84.0639 34.3379 83.0594 34.3379Z" fill="#202844"/>
</svg>
